<?xml version="1.0" encoding="UTF-8" standalone="no"?>
<!DOCTYPE svg PUBLIC "-//W3C//DTD SVG 1.1//EN"
 "http://www.w3.org/Graphics/SVG/1.1/DTD/svg11.dtd">
<!-- Generated by graphviz version 2.47.3 (20210619.1520)
 -->
<!-- Title: dependencies Pages: 1 -->
<svg width="439pt" height="247pt"
 viewBox="0.00 0.00 439.00 246.80" xmlns="http://www.w3.org/2000/svg" xmlns:xlink="http://www.w3.org/1999/xlink">
<g id="graph0" class="graph" transform="scale(1 1) rotate(0) translate(4 242.8)">
<title>dependencies</title>
<polygon fill="white" stroke="transparent" points="-4,4 -4,-242.8 435,-242.8 435,4 -4,4"/>
<text text-anchor="middle" x="215.5" y="-8.2" font-family="sans-serif" font-size="14.00">dependencies</text>
<g id="clust1" class="cluster">
<title>cluster_AppModule</title>
<polygon fill="none" stroke="black" stroke-dasharray="1,5" points="8,-32.8 8,-230.8 423,-230.8 423,-32.8 8,-32.8"/>
</g>
<g id="clust4" class="cluster">
<title>cluster_AppModule_imports</title>
<polygon fill="none" stroke="black" points="146,-40.8 146,-92.8 415,-92.8 415,-40.8 146,-40.8"/>
</g>
<g id="clust6" class="cluster">
<title>cluster_AppModule_bootstrap</title>
<polygon fill="none" stroke="black" points="145,-170.8 145,-222.8 269,-222.8 269,-170.8 145,-170.8"/>
</g>
<g id="clust2" class="cluster">
<title>cluster_AppModule_declarations</title>
<polygon fill="none" stroke="black" points="16,-40.8 16,-92.8 138,-92.8 138,-40.8 16,-40.8"/>
</g>
<!-- AppComponent -->
<g id="node1" class="node">
<title>AppComponent</title>
<polygon fill="#ffffb3" stroke="black" points="129.94,-84.8 24.06,-84.8 24.06,-48.8 129.94,-48.8 129.94,-84.8"/>
<text text-anchor="middle" x="77" y="-62.6" font-family="Times,serif" font-size="14.00">AppComponent</text>
</g>
<!-- AppModule -->
<g id="node2" class="node">
<title>AppModule</title>
<polygon fill="#8dd3c7" stroke="black" points="248.66,-149.8 245.66,-153.8 224.66,-153.8 221.66,-149.8 165.34,-149.8 165.34,-113.8 248.66,-113.8 248.66,-149.8"/>
<text text-anchor="middle" x="207" y="-127.6" font-family="Times,serif" font-size="14.00">AppModule</text>
</g>
<!-- AppComponent&#45;&gt;AppModule -->
<g id="edge1" class="edge">
<title>AppComponent&#45;&gt;AppModule</title>
<path fill="none" stroke="black" d="M77,-84.91C77,-104.14 77,-131.8 77,-131.8 77,-131.8 155.15,-131.8 155.15,-131.8"/>
<polygon fill="black" stroke="black" points="155.15,-135.3 165.15,-131.8 155.15,-128.3 155.15,-135.3"/>
</g>
<!-- AppComponent  -->
<g id="node5" class="node">
<title>AppComponent </title>
<polygon fill="#80b1d3" stroke="black" points="261.44,-214.8 152.56,-214.8 152.56,-178.8 261.44,-178.8 261.44,-214.8"/>
<text text-anchor="middle" x="207" y="-192.6" font-family="Times,serif" font-size="14.00">AppComponent </text>
</g>
<!-- AppModule&#45;&gt;AppComponent  -->
<g id="edge4" class="edge">
<title>AppModule&#45;&gt;AppComponent </title>
<path fill="none" stroke="black" stroke-dasharray="1,5" d="M207,-149.91C207,-149.91 207,-168.79 207,-168.79"/>
<polygon fill="black" stroke="black" points="203.5,-168.79 207,-178.79 210.5,-168.79 203.5,-168.79"/>
</g>
<!-- AppRoutingModule -->
<g id="node3" class="node">
<title>AppRoutingModule</title>
<polygon fill="#8dd3c7" stroke="black" points="407.27,-84.8 404.27,-88.8 383.27,-88.8 380.27,-84.8 278.73,-84.8 278.73,-48.8 407.27,-48.8 407.27,-84.8"/>
<text text-anchor="middle" x="343" y="-62.6" font-family="Times,serif" font-size="14.00">AppRoutingModule</text>
</g>
<!-- AppRoutingModule&#45;&gt;AppModule -->
<g id="edge2" class="edge">
<title>AppRoutingModule&#45;&gt;AppModule</title>
<path fill="none" stroke="black" d="M343,-84.91C343,-104.14 343,-131.8 343,-131.8 343,-131.8 258.91,-131.8 258.91,-131.8"/>
<polygon fill="black" stroke="black" points="258.91,-128.3 248.91,-131.8 258.91,-135.3 258.91,-128.3"/>
</g>
<!-- MaterialModule -->
<g id="node4" class="node">
<title>MaterialModule</title>
<polygon fill="#8dd3c7" stroke="black" points="260.47,-84.8 257.47,-88.8 236.47,-88.8 233.47,-84.8 153.53,-84.8 153.53,-48.8 260.47,-48.8 260.47,-84.8"/>
<text text-anchor="middle" x="207" y="-62.6" font-family="Times,serif" font-size="14.00">MaterialModule</text>
</g>
<!-- MaterialModule&#45;&gt;AppModule -->
<g id="edge3" class="edge">
<title>MaterialModule&#45;&gt;AppModule</title>
<path fill="none" stroke="black" d="M207,-84.91C207,-84.91 207,-103.79 207,-103.79"/>
<polygon fill="black" stroke="black" points="203.5,-103.79 207,-113.79 210.5,-103.79 203.5,-103.79"/>
</g>
</g>
</svg>
